<?xml version="1.0" standalone="no"?><!DOCTYPE svg PUBLIC "-//W3C//DTD SVG 1.1//EN" "http://www.w3.org/Graphics/SVG/1.1/DTD/svg11.dtd"><svg t="1578558384564" class="icon" viewBox="0 0 1089 1024" version="1.1" xmlns="http://www.w3.org/2000/svg" p-id="2803" xmlns:xlink="http://www.w3.org/1999/xlink" width="212.6953125" height="200"><defs><style type="text/css"></style></defs><path d="M883.861481 843.111585v-590.841556S881.13452 3.662081 656.614729 3.662081L431.86769 0.026133S203.257457-7.927503 203.257457 253.860756s-1.363481 587.887349-1.36348 587.887349h-159.072727v180.433921l999.885711 1.817974v-181.797402z m-772.638958 113.623376V909.013143h159.072726V229.09086c0-135.666311 138.847766-160.663454 138.847766-160.663454h248.607947c159.299973 0 159.072727 181.797402 159.072727 181.797402v659.015582h157.254753l1.36348 45.44935z m204.522077-92.489428h454.493505v-67.037792h-454.493505z m275.195817-157.481999h89.307974v-68.174026h-90.898701s-113.623376-47.494571-113.623376-159.072727 113.623376-159.072727 113.623376-159.072727h90.898701v-66.583298h-90.898701s-181.797402 32.950779-181.797402 227.246752 183.388129 225.656025 183.388129 225.656026z" fill="#666666" p-id="2804"></path><path d="M919.084728 296.355899a34.087013 34.087013 0 0 0 48.176311 0l112.032649-112.032649A33.905215 33.905215 0 0 0 1031.344623 136.374185l-112.487142 112.487142a34.087013 34.087013 0 0 0 0.227247 47.494572zM170.988419 247.725094L58.501276 135.237951A34.31426 34.31426 0 0 0 9.870471 183.641509l112.487142 112.487143a34.087013 34.087013 0 0 0 48.176312-47.949065z m908.987009 273.832336L967.488286 409.070288a34.087013 34.087013 0 0 0-48.176312 48.176311l112.487143 112.487143a33.905215 33.905215 0 0 0 47.949065-47.949065zM170.988419 409.070288a34.087013 34.087013 0 0 0-48.176312 0L9.870471 521.55743a33.905215 33.905215 0 0 0 47.949065 47.949065l112.487142-112.487142A34.087013 34.087013 0 0 0 170.533925 409.070288z" fill="#666666" p-id="2805"></path></svg>